<svg width="48" height="48" viewBox="0 0 48 48" fill="none" xmlns="http://www.w3.org/2000/svg">
<g clip-path="url(#clip0_533_2310)">
<path d="M18.1156 27.5469H15.5317C14.5999 27.5469 13.8418 28.3154 13.8418 29.2599V34.809C13.8418 35.3891 14.3074 35.861 14.8796 35.861H18.7676C19.3398 35.861 19.8054 35.3891 19.8054 34.809V29.26C19.8054 28.3154 19.0474 27.5469 18.1156 27.5469Z" fill="#232536"/>
<path d="M25.6996 24.1763H23.1157C22.1839 24.1763 21.4258 24.9448 21.4258 25.8893V34.8087C21.4258 35.3887 21.8914 35.8607 22.4636 35.8607H26.3516C26.9239 35.8607 27.3894 35.3887 27.3894 34.8087V25.8893C27.3894 24.9447 26.6314 24.1763 25.6996 24.1763Z" fill="#232536"/>
<path d="M33.4261 20.3364H30.8423C29.9104 20.3364 29.1523 21.1049 29.1523 22.0494V34.8089C29.1523 35.389 29.6179 35.8609 30.1901 35.8609H34.0781C34.6504 35.8609 35.1159 35.389 35.1159 34.8089V22.0494C35.116 21.1049 34.3579 20.3364 33.4261 20.3364Z" fill="#232536"/>
<path d="M30.9755 13.6483C30.6594 13.1955 30.1454 12.956 29.6003 13.0067L24.7202 13.4644C24.1752 13.5155 23.7133 13.8469 23.4845 14.3508C23.2557 14.8547 23.3078 15.426 23.6239 15.8788L23.8964 16.2691L17.8392 20.5118L17.833 20.5163C17.4032 20.8245 17.1176 21.2841 17.0288 21.8102C16.9399 22.3363 17.0585 22.8659 17.3626 23.3016C17.6667 23.7373 18.1201 24.0268 18.6391 24.1169C18.7515 24.1364 18.8641 24.1461 18.9759 24.1461C19.3788 24.1461 19.7711 24.0208 20.107 23.781L26.1738 19.5315L26.4551 19.9343C26.7431 20.3469 27.1954 20.5827 27.6858 20.5827C27.7336 20.5827 27.7818 20.5804 27.8302 20.5759C28.3752 20.5248 28.8371 20.1934 29.0659 19.6894L31.115 15.1764C31.3438 14.6724 31.2917 14.1012 30.9755 13.6483Z" fill="#FFD050"/>
</g>
<defs>
<clipPath id="clip0_533_2310">
<rect width="22.9565" height="23.2707" fill="white" transform="translate(13 12.5903)"/>
</clipPath>
</defs>
</svg>
