<svg width="48" height="48" viewBox="0 0 48 48" fill="none" xmlns="http://www.w3.org/2000/svg">
<path d="M25.0305 14.4461L14.04 12.8273C13.53 12.7502 13.0095 12.8855 12.6195 13.2055C12.2295 13.5356 12 14.0098 12 14.5043V34.9345C12 35.4683 12.45 35.9046 13.0005 35.9046H16.251V30.8141C16.251 29.8731 17.031 29.1168 18.0015 29.1168H20.502C21.4725 29.1168 22.2525 29.8731 22.2525 30.8141V35.9046H26.502V16.1245C26.5005 15.2896 25.8795 14.5828 25.0305 14.4461ZM17.5005 26.9352H16.0005C15.5865 26.9352 15.2505 26.6094 15.2505 26.208C15.2505 25.8066 15.5865 25.4808 16.0005 25.4808H17.5005C17.9145 25.4808 18.2505 25.8066 18.2505 26.208C18.2505 26.6094 17.9145 26.9352 17.5005 26.9352ZM17.5005 24.0264H16.0005C15.5865 24.0264 15.2505 23.7006 15.2505 23.2991C15.2505 22.8977 15.5865 22.5719 16.0005 22.5719H17.5005C17.9145 22.5719 18.2505 22.8977 18.2505 23.2991C18.2505 23.7006 17.9145 24.0264 17.5005 24.0264ZM17.5005 21.1175H16.0005C15.5865 21.1175 15.2505 20.7917 15.2505 20.3903C15.2505 19.9889 15.5865 19.6631 16.0005 19.6631H17.5005C17.9145 19.6631 18.2505 19.9889 18.2505 20.3903C18.2505 20.7917 17.9145 21.1175 17.5005 21.1175ZM17.5005 18.2087H16.0005C15.5865 18.2087 15.2505 17.8829 15.2505 17.4815C15.2505 17.08 15.5865 16.7542 16.0005 16.7542H17.5005C17.9145 16.7542 18.2505 17.08 18.2505 17.4815C18.2505 17.8829 17.9145 18.2087 17.5005 18.2087ZM22.5 26.9352H21C20.586 26.9352 20.25 26.6094 20.25 26.208C20.25 25.8066 20.586 25.4808 21 25.4808H22.5C22.914 25.4808 23.25 25.8066 23.25 26.208C23.25 26.6094 22.914 26.9352 22.5 26.9352ZM22.5 24.0264H21C20.586 24.0264 20.25 23.7006 20.25 23.2991C20.25 22.8977 20.586 22.5719 21 22.5719H22.5C22.914 22.5719 23.25 22.8977 23.25 23.2991C23.25 23.7006 22.914 24.0264 22.5 24.0264ZM22.5 21.1175H21C20.586 21.1175 20.25 20.7917 20.25 20.3903C20.25 19.9889 20.586 19.6631 21 19.6631H22.5C22.914 19.6631 23.25 19.9889 23.25 20.3903C23.25 20.7917 22.914 21.1175 22.5 21.1175ZM22.5 18.2087H21C20.586 18.2087 20.25 17.8829 20.25 17.4815C20.25 17.08 20.586 16.7542 21 16.7542H22.5C22.914 16.7542 23.25 17.08 23.25 17.4815C23.25 17.8829 22.914 18.2087 22.5 18.2087Z" fill="#232536"/>
<path d="M34.1205 23.4457L27 22V36.2039H33.75C34.7145 36.2039 35.5005 35.4432 35.5005 34.5066V25.1037C35.5005 24.3023 34.9365 23.6202 34.1205 23.4457ZM31.7505 33.295H30.2505C29.8365 33.295 29.5005 32.9692 29.5005 32.5678C29.5005 32.1664 29.8365 31.8406 30.2505 31.8406H31.7505C32.1645 31.8406 32.5005 32.1664 32.5005 32.5678C32.5005 32.9692 32.1645 33.295 31.7505 33.295ZM31.7505 30.3862H30.2505C29.8365 30.3862 29.5005 30.0604 29.5005 29.659C29.5005 29.2576 29.8365 28.9318 30.2505 28.9318H31.7505C32.1645 28.9318 32.5005 29.2576 32.5005 29.659C32.5005 30.0604 32.1645 30.3862 31.7505 30.3862ZM31.7505 27.4774H30.2505C29.8365 27.4774 29.5005 27.1516 29.5005 26.7501C29.5005 26.3487 29.8365 26.0229 30.2505 26.0229H31.7505C32.1645 26.0229 32.5005 26.3487 32.5005 26.7501C32.5005 27.1516 32.1645 27.4774 31.7505 27.4774Z" fill="#FFD050"/>
</svg>
