<svg width="48" height="47" viewBox="0 0 48 47" fill="none" xmlns="http://www.w3.org/2000/svg">
<path d="M39 46.5415H9C4.029 46.5415 0 42.6349 0 37.8149V8.72653C0 3.90657 4.029 0 9 0H39C43.971 0 48 3.90657 48 8.72653V37.8149C48 42.6349 43.971 46.5415 39 46.5415Z" fill="#FBF6EA"/>
<g clip-path="url(#clip0_4238_684)">
<path d="M17.8505 17.6143L15.8579 17.7635C15.3034 17.8051 14.8096 18.0868 14.503 18.5366L12.2049 21.9066C11.9724 22.2477 11.9354 22.6745 12.106 23.0484C12.2766 23.4223 12.6272 23.6828 13.0439 23.7454L14.8683 24.0194C15.2951 21.8233 16.3168 19.6325 17.8505 17.6143V17.6143Z" fill="#FFD050"/>
<path d="M22.1836 31.1113L22.4662 32.8804C22.5307 33.2843 22.7995 33.6243 23.185 33.7897C23.3454 33.8585 23.5152 33.8925 23.6842 33.8925C23.9215 33.8925 24.1572 33.8254 24.3626 33.6937L27.8384 31.4656C28.3022 31.1682 28.5928 30.6893 28.6355 30.1518L28.7895 28.2197C26.7079 29.7069 24.4486 30.6975 22.1836 31.1113V31.1113Z" fill="#FFD050"/>
<path d="M21.4966 29.8846C21.5599 29.8846 21.6236 29.8796 21.6872 29.8693C22.6361 29.7155 23.5507 29.4563 24.4232 29.1171L16.9244 21.8462C16.5746 22.6921 16.3073 23.5789 16.1486 24.499C16.0861 24.8617 16.2116 25.2312 16.4797 25.4913L20.6639 29.5483C20.8865 29.7641 21.187 29.8846 21.4966 29.8846Z" fill="#FFD050"/>
<path d="M33.1661 21.4788C35.0011 18.0389 35.069 14.4039 34.9731 12.6991C34.9403 12.1149 34.46 11.6492 33.8575 11.6174C33.5712 11.6022 33.2319 11.5913 32.8495 11.5913C30.8835 11.5913 27.7726 11.88 24.8027 13.3695C22.4424 14.5533 19.3475 17.1597 17.5215 20.5851C17.543 20.6015 17.5641 20.6188 17.584 20.638L25.6698 28.4782C25.6897 28.4975 25.7075 28.5179 25.7244 28.5388C29.2571 26.7682 31.9453 23.7673 33.1661 21.4788V21.4788ZM25.3731 16.3059C26.6866 15.0322 28.8241 15.0321 30.1377 16.3059C30.7741 16.9228 31.1245 17.7432 31.1245 18.6158C31.1245 19.4884 30.7741 20.3088 30.1377 20.9257C29.481 21.5625 28.618 21.8809 27.7554 21.881C26.8925 21.8811 26.03 21.5627 25.3731 20.9257C24.7367 20.3088 24.3863 19.4884 24.3863 18.6158C24.3863 17.7432 24.7367 16.9228 25.3731 16.3059V16.3059Z" fill="#232536"/>
<path d="M26.3264 20.0018C27.1146 20.766 28.3971 20.7661 29.1853 20.0018C29.5671 19.6316 29.7773 19.1394 29.7773 18.6158C29.7773 18.0923 29.5671 17.6001 29.1853 17.2299C28.7912 16.8478 28.2735 16.6567 27.7559 16.6567C27.2382 16.6567 26.7205 16.8478 26.3265 17.2299C25.9447 17.6001 25.7344 18.0923 25.7344 18.6158C25.7344 19.1394 25.9447 19.6316 26.3264 20.0018Z" fill="#232536"/>
<path d="M12.6875 29.9691C12.86 29.9691 13.0324 29.9054 13.164 29.7778L15.3639 27.6446C15.6271 27.3895 15.6271 26.9758 15.3639 26.7207C15.1008 26.4655 14.6741 26.4655 14.411 26.7207L12.211 28.8538C11.9479 29.1089 11.9479 29.5226 12.211 29.7778C12.3426 29.9053 12.5151 29.9691 12.6875 29.9691Z" fill="#FFD050"/>
<path d="M17.3799 28.6762C17.1168 28.4211 16.6901 28.4211 16.427 28.6762L12.1974 32.7773C11.9342 33.0325 11.9342 33.4461 12.1974 33.7013C12.3289 33.8289 12.5014 33.8926 12.6739 33.8926C12.8463 33.8926 13.0188 33.8289 13.1503 33.7013L17.3799 29.6002C17.6431 29.345 17.6431 28.9314 17.3799 28.6762V28.6762Z" fill="#FFD050"/>
<path d="M18.4422 30.6303L16.2423 32.7634C15.9791 33.0186 15.9791 33.4323 16.2423 33.6874C16.3739 33.815 16.5463 33.8788 16.7187 33.8788C16.8911 33.8788 17.0636 33.815 17.1952 33.6874L19.3951 31.5543C19.6583 31.2991 19.6583 30.8855 19.3951 30.6303C19.132 30.3752 18.7054 30.3752 18.4422 30.6303Z" fill="#FFD050"/>
</g>
<defs>
<clipPath id="clip0_4238_684">
<rect width="23" height="22.3011" fill="white" transform="translate(12 11.5913)"/>
</clipPath>
</defs>
</svg>
